<svg version="1.2" xmlns="http://www.w3.org/2000/svg" viewBox="0 0 3660 4640" width="3660" height="4640">
	<title>figura_2-svg</title>
	<style>
		.s0 { fill: #f8d8dd } 
		.s1 { fill: #d7627c } 
	</style>
	<g id="l7OnvcIbzUYc6CQnwqhBHvn">
		<g id="Layer">
		</g>
	</g>
	<g id="l38BtnkhktA856INW3WS8Dc">
		<g id="Layer">
			<path id="pJBrZu71I" class="s0" d="m3620 4552.5c-23-8.5-103-50.5-120.5-63-7.5-5.5-23.5-15-35.5-22-12-6.5-36-25.5-54-42-18-16.5-63.5-58.5-101.5-93.5-38-35-73-71.5-78-81.5-5.5-10-14.5-22.5-20.5-28-13-11.5-45-58.5-45-66 0-3-8.5-16-19.5-29.5-10.5-13.5-26.5-37-35-52.5-8.5-15.5-20-32-25.5-37-5.5-5-10-11-10-14 0-2.5-12-25-26.5-50-31-53.5-44.5-85-40.5-96 1.5-4 0.5-7.5-3-7.5-3 0-4-2-2.5-5 1.5-2.5 1-5-2-5-2.5 0-10.5-16-18-35.5-7.5-19.5-21-50-30-68.5-9-18.5-20-48-24.5-66-11-44.5-24.5-79-52.5-135-22.5-44.5-24.5-50.5-26.5-95-2.5-42.5-4.5-51.5-21.5-85l-19-37.5-1-72.5c0-40-2-78-3.5-85-1.5-7-7-40.5-12-75-10-69.5-12.5-263-6-447.5 6.5-177 2.5-581.5-6-642-2.5-18.5-5-45.5-5-60.5 0-15.5-3.5-41.5-8-57.5-4.5-16.5-10-40-12-52.5-1.5-12.5-8.5-32.5-15-45-6-12-11.5-30.5-12-41 0-10.5-1.5-19-3.5-19-1.5 0-3-6.5-3.5-14 0-8-7-29-15-46.5-8.5-17.5-19.5-42-24.5-54.5-5.5-12.5-16-31.5-23.5-42-7-11-17-32.5-21-47.5-11.5-39-18.5-52-48-84-13.5-15-28-35-32-44-11-26-46-76.5-60-86-7.5-5-27-21.5-44-37-17-15.5-44-39-60.5-52-32.5-25.5-147-135.5-180-172.5-23-25-101-85.5-127-98-9-4.5-36.5-25.5-61.5-47.5-24.5-21.5-47.5-39.5-50.5-39.5-3.5 0-16 7-28.5 15-27.5 18-30 18.5-30 2.5 0-8 3-12.5 7.5-12.5 4 0 7.5-2 7.5-4.5 0-2.5 15-14 34-26 18.5-11.5 41.5-28 51.5-36.5 10-8.5 35.5-29 57.5-45.5 75.5-57.5 195-186 262-281.5 11-15.5 26-37.5 34-48.5 38-54.5 112-193 134.5-252.5 6.5-17.5 17-42.5 22.5-55 19.5-44 23-52.5 26.5-65 2-7 8-24.5 13.5-38.5l9.5-26.5h542.5 542v2280 2280l-11-0.5c-6.5 0-19.5-3-29-7z"/>
			<path id="pKWweCwmZ" class="s0" d="m1096.5 1106.5c-6.5-1-11.5-4.5-11.5-7 0-2.5-3.5-4.5-7.5-4.5-4 0-7.5-3.5-7.5-8 0-7 4-8 24-5 13 2 43 4.5 67.5 6.5 29.5 2 43.5 5 43.5 9 0 3.5-5 7.5-11 9.5-12.5 3-80 3-97.5-0.5z"/>
			<path id="p6SZzUJq6" class="s0" d="m1269 1106.5c-5-1-9-5-9-8.5 0-4.5 12.5-7.5 40-10 104-8.5 212.5-32.5 320-71 34.5-12 68-22 74-22 6 0 11-2 11-4.5 0-5.5 56-30.5 69.5-30.5 5.5 0 10.5-2 10.5-5 0-2.5 4.5-5 9.5-5 5.5 0 10.5-2 11.5-4 6-15 79-40 79-27 0 9.5-92 57-108 55.5-2 0-5 2-7 5-3.5 6.5-74.5 37-115 50.5-15 4.5-33 11-40 14-40.5 16.5-125.5 39.5-165 44-9.5 1-42 6.5-72.5 12-52 9.5-89 11.5-108.5 6.5z"/>
			<path id="p11Sup5qSO" class="s0" d="m948.5 1077.5c-19-6-37-14-40-17-3-3-11-5.5-17.5-5.5-13.5 0-46-18-46-25.5 0-9 55.5 0 65 11 1.5 1.5 16 5.5 32.5 9 61.5 13 87.5 22.5 87.5 32 0 12.5-38.5 10.5-81.5-4z"/>
			<path id="pIF6oLmsw" class="s0" d="m795 1018.5c-15-6-38.5-18.5-52-27-14-9-28.5-16.5-32.5-16.5-4 0-5.5-1.5-3.5-3.5 1.5-2-2-6.5-8-10-10.5-6-9.5-6.5 13.5-5.5 21.5 1.5 25 3 26.5 13 1.5 8.5 5 11 16.5 11 8 0 28 6 44.5 13.5 24 11 30 16.5 30 25 0 13.5 0 13.5-35 0z"/>
			<path id="p1GNFlSB7F" class="s0" d="m1085 955c-132-22-193.5-42.5-283.5-93.5-56.5-31.5-71-42-71.5-50 0-3.5-5-6.5-11.5-6.5-18.5 0-48.5-23.5-48.5-37.5 0-10-2.5-12.5-13-12.5-9 0-24.5-10-49-31.5-55.5-48.5-73-69.5-73-88.5v-16l36 31.5c20 17.5 53 49 73 69.5 20 20.5 39 37 41.5 36.5 2.5-1 4.5 1 4.5 4 0 2.5 2 4 4.5 2 2.5-1.5 8 2 12 7.5 3.5 5.5 8.5 8.5 10.5 6.5 2-2 4.5 1.5 6.5 7.5 1.5 6 5 11 8.5 11.5 21 1 33.5 5 50 16.5 10.5 7 23 14 28 15.5 5.5 1.5 10.5 7 12 11.5 1.5 4.5 8 9 14 9 6.5 0.5 25 7 41.5 15 16.5 7.5 48 18.5 70 25 62 17.5 94.5 30 96.5 36 2.5 7.5 16 8 16 0.5 0-4 5.5-4.5 16-2.5 9 1.5 49 5.5 89 8 45 3.5 74.5 7.5 77.5 11.5 7 8.5 62.5 10 59.5 1-3.5-8.5 28.5-19 51-16.5 9.5 1 17 0 17-2 0-2 10-4 22.5-4 12.5 0 22.5 2.5 22.5 5 0 9 11 5 13.5-5 2-7 8.5-10.5 26-12.5 12.5-2 30-6.5 38-10 8.5-3.5 29.5-9.5 46.5-13 27-5 32.5-5 36.5 1 3.5 5.5 5 4.5 7.5-4 2-7.5 10.5-14 26.5-19.5 38.5-14 65-26 132-60.5 40-20 67.5-31.5 74-30 5.5 1.5 9.5 0.5 9-3-0.5-3.5 0.5-10 3-15 4.5-10.5-15.5-34.5-38.5-46.5-43.5-22.5-107-93-124-137-10-26-34.5-60.5-55.5-79-31-27-69.5-91.5-69.5-117 0-5-7-28-16-50.5-9-22.5-16.5-42-17-43.5-0.5-4-17-41-22.5-52.5-2.5-5.5-5.5-15-7-21-1-6-4-15-6.5-20-2.5-5-10-29-15.5-54-6-24.5-14.5-54-19-65-4.5-11-8.5-24.5-9.5-30-0.5-5.5-1.5-10-2-10-0.5 0-1.5-6-2.5-13.5l-2-14h510 509.5v11.5c0 17.5-18 69-39 112.5-10.5 21-23 49-27.5 61.5-13 34.5-76 151-107.5 199.5-27 41.5-35.5 52.5-98.5 132.5-33.5 42.5-125.5 131-182.5 175.5-43 33.5-121 87-126.5 87-2.5 0-11.5 5.5-20 11.5-22.5 16.5-75.5 45-111 59-16.5 6.5-33 15-36.5 18-3.5 3.5-11.5 6.5-17 6.5-5.5 0-17 3-25.5 7-48.5 21-123 43-192.5 56-20.5 3.5-45 9-55 11.5-65 17-231.5 20-316 5.5z"/>
			<path id="p16JGHjHSn" class="s0" d="m673 947c-5.5-4-14-7-18.5-7-12 0-40.5-24.5-36-31 2-3.5 0.5-4-3-2-3.5 2.5-20-5.5-40.5-19.5-42-28-52.5-38-45.5-42 6-4-31-39-38.5-36.5-6 2-34.5-22-41.5-35.5-5-8.5-4.5-9.5 3-6.5 7.5 2.5 8 2 3-4-3.5-4-10-6-14-4.5-5.5 2-7 1.5-4.5-3 2-3 1-9-2-13-5.5-6.5-3.5-7.5 9.5-7.5 10.5 0 15.5 2.5 15.5 7.5 0 4 2.5 7.5 5.5 7.5 10.5 0 64.5 57.5 64.5 68.5 0 8.5 3 11.5 11.5 11.5 6 0 30.5 15 54.5 34 45 34.5 71.5 54 83 60.5 4 2.5 6 10 5 17-1.5 11.5-2.5 12-11 5.5z"/>
			<path id="p1UWrBwgA" class="s0" d="m375 678c-7-7-24.5-24-39.5-37.5-14.5-13.5-25-27-23-30 1.5-3 0.5-5.5-2.5-5.5-3 0-4-2.5-2.5-5 2-3 0.5-8.5-2.5-12.5-5-6.5-4-7.5 9-7.5 10.5 0 18 4 24.5 12.5 5 6.5 17 23 26.5 36 9.5 13 19.5 25.5 21.5 27 2.5 1.5 3.5 10.5 2.5 19.5l-1.5 16z"/>
			<path id="p9cHBXBBM" class="s0" d="m486.5 596.5c-2-5-6-11-10-13-3.5-2-6.5-12-6.5-21.5v-17.5l12.5 9c6.5 5 12.5 11 12.5 13 0 2.5 6 12 13 21.5l13 17h-15.5c-10.5 0-17-3-19-8.5z"/>
			<path id="p03TbGZEP" class="s0" d="m262.5 523.5c-5.5-7.5-13-13.5-17-13.5-4 0-6-1.5-4-3 1.5-2-2-7.5-8-13-7-6.5-9-10.5-5-12 3.5-1.5 4.5-6 3-10-1.5-3.5-4.5-5.5-7-4-3 1.5-8.5 0-12.5-3.5-10.5-8.5-28-44-24.5-49 1.5-2.5-0.5-6-3.5-7q-8.3-3 0-3c8-0.5-3.5-20.5-12.5-20.5-11 0-26-27.5-25-47 1-16.5 2.5-18 13-17 9 1 16 8.5 26 28 7.5 14.5 14.5 30 16.5 35 1.5 4.5 10.5 19.5 20.5 33 9.5 13 17.5 29 17.5 35 0 6 4.5 13.5 10 16.5 14 9 26 34.5 24 52.5l-1.5 15.5z"/>
			<path id="pL2dCQIY0" class="s0" d="m393 472c-1.5-4.5-3-13-3-19.5q0-12-10.5-13.5c-7-1-15.5-10-24-26.5-7-13.5-14.5-25.5-16.5-26.5-2.5-1-4-7.5-4-14 0-6.5-3-12-6.5-12-10 0-58.5-95.5-58.5-114.5 0-18.5 1-19 17-4 11.5 11 24.5 36 50.5 97 5 12 15.5 28.5 23 37 8 9 20.5 29 27.5 45 7.5 16 15 28.5 16.5 27.5 1.5-1 6.5 6 11 15l8 17h-13.5c-8 0-15-3.5-17-8z"/>
			<path id="p92O1vxyq" class="s0" d="m130 290.5c0-2.5-7-12-16-20.5-10-10-13.5-17-10-19.5 3.5-2 4-6 1-10.5-7.5-11.5-6-15 7-15 9 0 13.5 4.5 20 21.5 9 24 10.5 48.5 3 48.5-2.5 0-5-2-5-4.5z"/>
			<path id="pX1ColZub" class="s0" d="m246 212.5c-6.5-14.5-8-42.5-2-42.5 6 0.5 21.5 24.5 26 40 4 13.5 3 15-7 15-7.5 0-13.5-4.5-17-12.5z"/>
			<path id="pBoUPpZ7m" class="s0" d="m75 174c0-3.5-6.5-12-14.5-19-16.5-14.5-26.5-43.5-13-38 6.5 2.5 7 1 2-7.5-4.5-9-4-10 5.5-8.5 9.5 1.5 16 9.5 31 40 7 15 5 39-3.5 39-4 0-7.5-3-7.5-6z"/>
			<path id="pjPev1gsm" class="s0" d="m206.5 126c-15.5-36.5-22-76-12-76 6 0 35 61 42.5 90.5 6.5 23.5 6 24.5-4 24.5-8.5 0-14-8-26.5-39z"/>
			<path id="p37XXBVJ2" class="s0" d="m38 82.5c-1.5-4-6-7.5-10-7.5-7.5 0-28-47.5-28-65.5 0-8.5 3-10 16-8.5 14 1.5 16.5 4.5 24.5 26.5 9.5 27 12.5 62.5 5 62.5-2.5 0-5.5-3.5-7.5-7.5z"/>
			<path id="piojHpumm" class="s0" d="m165 15c0-21.5 18-21.5 21 0 2 13 0.5 15-9.5 15-9.5 0-11.5-2.5-11.5-15z"/>
		</g>
	</g>
	<g id="l4Kn8tS8oaqTUBgJxfgv08Z">
		<g id="Layer">
			<path id="pIMYOsx0V" class="s1" d="m1165 1104.5c-111-7-143.5-13-250-45-43.5-13-80-27.5-123-47.5-19.5-9.5-37-17-39-17-2 0-14.5-7.5-28-16-13.5-9-35.5-23-48.5-31.5-91-56-237-190.5-312.5-287.5-18.5-23.5-40-50.5-48-60-7.5-9.5-25-34.5-38-55-13.5-20.5-28-43-33-50-5-7-13.5-23-20-35-6-12.5-14.5-26.5-18.5-31-14-15.5-131.5-247.5-131.5-259 0-3-2-9-4.5-14-18-33.5-55.5-135-55.5-149.5 0-5 17.5-6.5 81.5-6.5h81l14 36.5c44.5 112.5 109.5 247.5 154 319.5 13.5 22 24.5 41 24.5 42 0 12 123.5 175.5 180 238 39.5 44 150.5 142.5 173.5 154 7.5 4 24 14 36.5 22.5 24.5 17 78 47.5 116.5 66 82 40 236.5 71.5 350 71.5 119 0 289-35 410-84.5 8-3 18.5-5.5 23.5-5.5 5 0 12.5-3 16-6.5 3.5-3 20-11.5 36.5-18 35.5-14 88.5-42.5 111-59 8.5-6 17.5-11.5 20-11.5 5.5 0 83.5-53.5 126.5-87 57-44.5 149-133 182.5-175.5 63-80 71.5-91 98.5-132.5 31.5-48.5 94.5-165 107.5-199.5 4.5-12.5 17.5-41 28-62.5 10.5-21.5 24-55 30-73.5l10.5-34.5h84.5c72 0 84 1 82 7-1.5 4-9 25-16.5 46.5-13.5 39.5-18 51-36 91.5-5.5 12.5-16 37.5-22.5 55-22.5 59.5-96.5 198-134.5 252.5-8 11-23 33-34 48.5-66 94.5-174.5 212-252.5 273.5-24.5 19.5-54 43-64.5 51.5-142 115.5-419 233-628 266-42.5 7-172 19-179.5 17-1.5 0-29-2.5-60.5-4.5z"/>
		</g>
	</g>
</svg>