<svg version="1.2" xmlns="http://www.w3.org/2000/svg" viewBox="0 0 334 529" width="334" height="529">
	<title>figura_1-svg</title>
	<style>
		.s0 { fill: #f1a19d } 
		.s1 { fill: #efcad1 } 
	</style>
	<path id="Layer" class="s0" d="m0 0v102c0 16.6-1.9 34.5 0.2 51 0.8 6.2 4.2 12.2 6.4 18 4.5 12 9.7 26.3 11.4 39 3.2-4.4 3.8-10.2 6.4-15 3.8-7.2 8.8-13.8 12.7-21 2.9-5.3 4.8-10.9 8.1-16 11.3-17.2 31.3-31.4 49.8-39.9 10-4.6 20.5-6.9 31-9.8 34.7-9.6 71.6-14.6 105-28.4 3.7-1.6 6.5-4.6 10-6.5 13.1-6.8 25.1-15.1 37-24.2 10.4-7.9 19.7-17.2 28.3-27.2 5.7-6.7 11.2-13.4 13.7-22z"/>
	<path id="Layer" class="s1" d="m242.7 72.3c-0.5 0.5 0.6 0.4 0.6 0.4 0.5-0.5-0.6-0.4-0.6-0.4zm-17 9c-0.5 0.5 0.6 0.4 0.6 0.4 0.5-0.5-0.6-0.4-0.6-0.4zm-44.7 12.7c1.2 0.7 1.5 0.7 3 1-1.2-0.7-1.5-0.7-3-1zm-12.3 3.3c-0.5 0.5 0.6 0.4 0.6 0.4 0.5-0.5-0.6-0.4-0.6-0.4zm-5 1c-0.5 0.5 0.6 0.4 0.6 0.4 0.5-0.5-0.6-0.4-0.6-0.4zm-13 3c-0.5 0.5 0.6 0.4 0.6 0.4 0.5-0.5-0.6-0.4-0.6-0.4zm-34 9c-0.5 0.5 0.6 0.4 0.6 0.4 0.5-0.5-0.6-0.4-0.6-0.4zm-4 1c-0.5 0.5 0.6 0.4 0.6 0.4 0.5-0.5-0.6-0.4-0.6-0.4zm-112.7 43.7c0 16-1.8 33.2 0.3 49 1.6 12.2 6.4 24 9 36 5.4 24.8 9.7 51.6 9.7 77 0 26.6-0.2 52.7-4.3 79-2.4 15.8-6.3 31.4-9.9 47-1.3 5.3-3.7 10.6-4.5 16-2.2 14.4-0.3 30.4-0.3 45 5.7-7.3 7.8-17.4 10.9-26 6.6-18.8 12.9-38.3 16.4-58 7.6-43.9 10.8-87.5 6.5-132-1.7-17.6-6-34.7-9.2-52-3.3-17.7-8.6-34.7-13.7-52-2.9-9.6-5.3-20.6-10.9-29z"/>
	<path id="Layer" class="s0" d="m0 205v41c9.6-11.9 6.3-28.1 0-41z"/>
</svg>