<svg version="1.2" xmlns="http://www.w3.org/2000/svg" viewBox="0 0 5320 6480" width="5320" height="6480">
	<title>figura_3-svg</title>
	<style>
		.s0 { fill: #f7d8db } 
		.s1 { fill: #d7627b } 
	</style>
	<g id="l5auRO63PgL2Juy5v7s1bMH">
		<g id="Layer">
			<path id="pwifQ6w75" class="s0" d="m40 6453c0-36 19-72 73-136 24-29 64-81 89-117 26-36 103-123 172-195 69-71 126-132 126-136 0-10 66-69 77-69 7 0 18-8 25-19 43-61 152-161 176-161 5 0 17-11 26-25 9-14 23-25 31-25 8 0 22-11 30-24 16-25 126-106 143-106 5 0 12-7 16-15 3-8 12-15 21-15 8 0 15-4 15-10 0-5 7-10 15-10 8 0 15-4 15-9 0-11 238-154 374-225 60-31 170-79 245-106 75-28 170-63 211-80 181-71 615-152 908-170 97-6 191-15 208-21 17-5 44-9 60-9 26 0 30 4 29 27v27l80-2c44-2 177-9 295-17 118-7 269-16 335-20 66-3 172-10 235-15 63-5 185-14 270-20 283-20 637-61 860-100 63-11 116-20 118-20 1 0 2 56 2 125 0 123 0 125-22 125-13 0-90 11-173 24-336 55-905 104-1565 136-386 18-534 31-545 45-5 7-15 21-21 31-9 16-13 16-40 3-32-16-133-10-404 26-125 16-449 94-499 119-14 7-53 21-86 31-33 9-71 22-85 29-14 7-40 20-58 29-19 9-40 17-48 17-8 0-14 4-14 9 0 5-15 14-32 21-62 25-270 131-285 146-8 7-25 17-39 20-13 3-24 10-24 15 0 5-6 9-14 9-8 0-16 3-18 8-1 4-21 16-42 27-39 20-96 60-127 90-9 8-21 15-27 15-6 0-16 9-22 20-6 11-17 20-25 20-7 0-23 14-35 30-12 17-27 30-33 30-7 0-27 14-45 30-18 17-35 30-38 30-5 0-88 81-228 220-99 100-126 129-126 138 0 5-25 33-55 61-30 29-55 54-55 57 0 2-8 12-17 23-10 10-31 35-46 55l-28 36h-179-180z"/>
		</g>
		<g id="l38fKLKLNS38ZHrXJZxoXbk">
			<g id="Layer">
				<path id="pU4HvV3yL" class="s1" d="m2180 6455c0-16 29-60 83-127 143-177 250-339 339-514 48-93 102-195 122-228 19-32 47-90 62-129 15-39 43-98 62-131 19-34 58-112 88-173 46-98 56-113 77-113 13 0 82-4 153-10 71-5 233-14 359-20 652-31 1232-81 1570-136 83-13 167-24 188-24h37v815 815h-1570-1570z"/>
				<path id="p16R9arEWM" class="s1" d="m3097 4854c-19-19-1-101 58-277 147-438 194-728 220-1367 9-216 29-363 96-700 156-790 281-1119 570-1502 79-105 333-358 464-464 318-256 707-504 790-504h25v2313 2313l-137 22c-258 41-517 71-808 92-82 6-206 15-275 20-69 5-174 12-235 15-60 3-211 12-335 20-405 25-426 26-433 19z"/>
			</g>
		</g>
	</g>
	<g id="l1yS3Oyw4vQbL0cJcOIao6d">
		<g id="Layer">
		</g>
	</g>
</svg>